<svg xmlns="http://www.w3.org/2000/svg" xmlns:xlink="http://www.w3.org/1999/xlink" width="500" zoomAndPan="magnify" viewBox="0 0 375 374.999991" height="500" preserveAspectRatio="xMidYMid meet" version="1.0"><defs><clipPath id="866d6f03d3"><path d="M 37.5 93 L 310 93 L 310 313 L 37.5 313 Z M 37.5 93 " clip-rule="nonzero"/></clipPath><clipPath id="2611e607a1"><path d="M 37.5 91 L 312 91 L 312 313.125 L 37.5 313.125 Z M 37.5 91 " clip-rule="nonzero"/></clipPath><clipPath id="19a9ff7215"><path d="M 299 61.875 L 337.5 61.875 L 337.5 90 L 299 90 Z M 299 61.875 " clip-rule="nonzero"/></clipPath><clipPath id="41c3bfa999"><path d="M 297 61.875 L 337.5 61.875 L 337.5 92 L 297 92 Z M 297 61.875 " clip-rule="nonzero"/></clipPath></defs><rect x="-37.5" width="450" fill="#ffffff" y="-37.499999" height="449.999989" fill-opacity="1"/><rect x="-37.5" width="450" fill="#ffffff" y="-37.499999" height="449.999989" fill-opacity="1"/><g clip-path="url(#866d6f03d3)"><path fill="#000000" d="M 37.605469 158.09375 L 37.605469 155.578125 C 37.867188 153.898438 38.316406 152.273438 38.949219 150.695312 C 42.585938 141.746094 51.269531 137.761719 55.882812 135.636719 C 65.25 131.328125 73.628906 131.398438 79.011719 131.511719 C 83.207031 131.582031 88.140625 131.734375 94.15625 133.859375 C 100.125 135.980469 105.339844 139.289062 109.800781 143.789062 C 111.921875 145.59375 113.851562 147.585938 115.59375 149.757812 C 117.332031 151.933594 118.851562 154.253906 120.148438 156.71875 C 121.445312 159.183594 122.496094 161.746094 123.304688 164.414062 C 124.113281 167.078125 124.660156 169.796875 124.945312 172.566406 L 125.113281 188.730469 L 124.105469 197.820312 C 123.324219 201.246094 122.472656 204.726562 121.589844 208.25 C 120.285156 213.378906 118.9375 218.371094 117.550781 223.226562 C 116.933594 226.597656 116.320312 229.953125 115.6875 233.324219 C 115.117188 238.34375 114.722656 243.839844 114.625 249.753906 C 114.523438 256.976562 114.878906 264.179688 115.6875 271.355469 C 115.855469 271.734375 116.054688 272.210938 116.277344 272.742188 C 116.5 273.273438 116.753906 273.886719 117.046875 274.558594 C 117.855469 276.460938 118.359375 277.636719 118.890625 278.769531 C 120.109375 281.339844 120.863281 282.949219 122.261719 284.824219 C 123.953125 287.089844 125.546875 288.347656 126.636719 289.199219 C 128.511719 290.652344 130.121094 291.871094 131.6875 291.382812 C 132.414062 291.15625 132.902344 290.625 133.195312 290.207031 L 134.035156 275.0625 L 134.539062 259.570312 C 134.816406 254.804688 135.101562 250.039062 135.390625 245.265625 C 135.664062 237.121094 137.460938 229.328125 140.773438 221.882812 L 144.464844 212.796875 C 146.023438 209.007812 148.09375 205.523438 150.671875 202.339844 C 153.253906 199.160156 156.238281 196.417969 159.625 194.113281 L 172.742188 186.199219 L 183.855469 178.96875 C 185.003906 177.917969 185.898438 176.683594 186.542969 175.265625 C 187.785156 172.46875 187.480469 169.851562 187.382812 169.027344 C 186.625 161.699219 188.570312 150.039062 188.738281 149.003906 C 190.121094 140.601562 193.757812 133.652344 196.804688 127.804688 C 198.441406 124.671875 199.742188 122.632812 201.351562 118.550781 C 202.851562 114.761719 204.085938 110.886719 205.054688 106.929688 C 205.460938 105.179688 206.0625 102.273438 207.585938 98.523438 C 209.109375 94.777344 210.007812 94.023438 210.773438 93.980469 C 212.117188 93.898438 213.25 95.796875 213.976562 97 C 214.703125 98.203125 214.898438 98.988281 216.160156 103.40625 C 217.054688 106.507812 217.292969 107.265625 218.019531 108.285156 C 218.746094 109.304688 219.445312 110.269531 220.871094 110.800781 C 222.632812 111.460938 223.402344 110.507812 226.101562 110.96875 C 227.160156 111.160156 228.164062 111.5 229.121094 111.992188 C 230.671875 112.746094 231.035156 113.390625 233.160156 115.179688 C 234.757812 116.535156 234.433594 116.074219 238.042969 118.882812 C 240.742188 120.980469 240.699219 121.066406 241.414062 121.402344 C 243.46875 122.394531 244.222656 121.90625 246.460938 122.925781 C 247.46875 123.386719 248.808594 124.003906 249.828125 125.273438 C 251.296875 127.148438 251.242188 129.386719 251.171875 131.679688 C 251.085938 134.253906 250.523438 136.71875 249.480469 139.078125 L 245.957031 146.152344 C 250.292969 146.429688 253.984375 146.417969 256.890625 146.320312 C 259.800781 146.222656 262.234375 145.96875 264.636719 144.628906 C 265.617188 144.070312 266.511719 143.398438 267.324219 142.613281 C 270.316406 139.71875 271.28125 136.152344 271.699219 134.699219 C 273.054688 130.125 275.574219 125.988281 280.621094 117.710938 C 281.402344 116.4375 280.664062 117.695312 287.179688 107.949219 C 289.054688 105.09375 291.078125 102.34375 293.246094 99.699219 C 295.890625 96.484375 297.371094 95.113281 299.46875 94.148438 C 300.867188 93.503906 302.964844 92.566406 305.355469 93.308594 C 305.804688 93.433594 308.042969 94.175781 309.230469 96.496094 C 310.222656 98.441406 309.859375 100.285156 309.734375 100.875 C 309.609375 101.460938 309.230469 102.59375 307.550781 104.746094 C 305.679688 107.125 304.558594 107.921875 303.007812 109.628906 C 303.007812 109.628906 301.105469 111.710938 299.136719 115.011719 C 296.828125 118.882812 296.898438 121.207031 295.429688 126.296875 C 294.589844 129.203125 294.644531 128.140625 289.375 140.769531 C 286.214844 148.320312 286.242188 148.570312 284.828125 151.535156 C 282.898438 155.578125 281.277344 158.960938 278.441406 162.972656 C 275.839844 166.652344 273.460938 169.054688 270.191406 172.398438 C 266.917969 175.738281 266.511719 175.78125 261.4375 180.648438 C 253.003906 188.730469 252.054688 190.578125 251.507812 191.917969 C 250.960938 193.261719 251.160156 193.273438 249.480469 201.34375 C 249.480469 201.34375 248.851562 204.433594 247.46875 210.601562 C 245.425781 219.757812 243.300781 223.394531 240.40625 233.324219 C 238.839844 238.652344 236.601562 246.425781 235.523438 256.714844 C 235.050781 261.164062 235.035156 265.289062 235.007812 273.539062 C 235.007812 273.539062 234.980469 286.277344 238.210938 293.410156 C 239.316406 295.828125 240.449219 296.863281 240.742188 297.101562 C 242.671875 298.792969 243.929688 298.316406 246.125 300.132812 C 246.726562 300.636719 248.265625 301.953125 248.976562 304.175781 C 249.257812 305.015625 249.828125 306.820312 248.976562 308.21875 C 248.375 309.210938 247.339844 309.53125 245.285156 310.0625 C 241.019531 311.152344 238.097656 311.65625 233.832031 312.089844 C 231.902344 312.273438 230.8125 312.355469 229.625 311.742188 C 228.714844 311.277344 228.324219 310.707031 226.773438 308.71875 C 224.589844 305.921875 225.445312 307.167969 223.402344 304.511719 C 221.625 302.203125 220.730469 301.03125 219.695312 299.464844 C 218.886719 298.21875 218.257812 297.15625 217.851562 296.429688 C 218.265625 299.050781 218.097656 301.632812 217.347656 304.175781 C 216.984375 305.390625 216.496094 307.015625 215.320312 308.382812 C 213.082031 311.011719 209.460938 311.378906 206.0625 311.574219 C 199.832031 311.945312 193.605469 311.886719 187.382812 311.40625 L 153.554688 311.910156 C 147.457031 312.9375 141.34375 313.054688 135.210938 312.257812 C 122.375 310.566406 113.480469 305.28125 108.628906 302.316406 C 103.511719 299.210938 96.15625 294.625 89.777344 285.996094 C 87.441406 282.835938 85.023438 277.832031 80.1875 267.820312 C 78.507812 264.367188 77.125 261.316406 76.3125 257.050781 C 75.570312 253.164062 75.726562 250.4375 75.808594 246.789062 C 75.949219 240.621094 75.53125 234.441406 75.472656 228.273438 C 75.347656 214.277344 75.292969 207.285156 75.304688 206.222656 C 75.417969 194.757812 75.765625 193.5 74.96875 189.234375 C 73.304688 180.3125 69.742188 174.957031 68.914062 173.742188 C 66.257812 169.894531 63.378906 167.351562 61.839844 166.007812 C 59.910156 164.316406 57.828125 162.539062 54.609375 160.960938 C 52.085938 159.757812 49.449219 158.914062 46.695312 158.429688 C 43.683594 157.890625 40.652344 157.777344 37.605469 158.09375 Z M 37.605469 158.09375 " fill-opacity="1" fill-rule="nonzero"/></g><g clip-path="url(#2611e607a1)"><path stroke-linecap="butt" transform="matrix(0.139832, 0, 0, 0.139832, 37.537268, 61.874996)" fill="none" stroke-linejoin="miter" d="M 0.487737 688.103024 L 0.487737 670.112673 C 2.359404 658.100482 5.571967 646.479385 10.09749 635.193513 C 36.10528 571.193677 98.205514 542.699643 131.197136 527.502824 C 198.186052 496.690158 258.10733 497.192994 296.602212 498.003118 C 326.604754 498.505954 361.887073 499.595432 404.907478 514.79225 C 447.592659 529.961133 484.886321 553.622356 516.788466 585.803853 C 531.957349 598.709975 545.757401 612.956992 558.216557 628.489034 C 570.647778 644.049012 581.51462 660.642597 590.789149 678.269788 C 600.063678 695.89698 607.578281 714.222555 613.360894 733.302384 C 619.143507 752.354278 623.054453 771.797266 625.093732 791.603413 L 626.294951 907.1998 L 619.087636 972.205308 C 613.500571 996.70459 607.410669 1021.594967 601.097285 1046.792633 C 591.766886 1083.471718 582.129198 1119.173067 572.212156 1153.89668 C 567.798374 1178.004868 563.412528 1202.001314 558.887005 1226.109502 C 554.808447 1262.006399 551.986979 1301.311405 551.288596 1343.605491 C 550.562277 1395.257912 553.104392 1446.770657 558.887005 1498.087854 C 560.088224 1500.797581 561.512926 1504.205691 563.105239 1508.004895 C 564.697553 1511.8041 566.513349 1516.189946 568.608499 1520.994823 C 574.391112 1534.599327 577.994769 1543.007861 581.793974 1551.109106 C 590.509796 1569.490552 595.901314 1580.999907 605.902162 1594.408864 C 617.998158 1610.611354 629.395772 1619.60653 637.189729 1625.696431 C 650.598686 1636.088373 662.108041 1644.804196 673.310108 1641.31228 C 678.506079 1639.692031 681.997994 1635.892826 684.093144 1632.903746 L 690.09924 1524.59848 L 693.702897 1413.80697 C 695.686305 1379.72587 697.725584 1345.64477 699.792798 1311.507799 C 701.748271 1253.262641 714.598522 1197.531662 738.28768 1144.286927 L 764.686565 1079.309355 C 775.832761 1052.212087 790.638484 1027.293774 809.075801 1004.526482 C 827.541052 981.787125 848.883643 962.176525 873.103572 945.694682 L 966.910403 889.097708 L 1046.386411 837.389416 C 1054.599397 829.874813 1060.996587 821.047249 1065.605916 810.906725 C 1074.48935 790.90503 1072.310395 772.188361 1071.612012 766.294006 C 1066.192558 713.887331 1080.104351 630.500378 1081.30557 623.097516 C 1091.194676 563.008626 1117.202467 513.311678 1138.992022 471.492492 C 1150.696925 449.088359 1159.999389 434.506118 1171.508744 405.3137 C 1182.23591 378.216432 1191.063473 350.504587 1197.991435 322.2061 C 1200.896709 309.691073 1205.198749 288.907189 1216.093527 262.089275 C 1226.988305 235.299295 1233.41343 229.907777 1238.888755 229.600488 C 1248.498507 229.013847 1256.599752 242.590416 1261.795723 251.194497 C 1266.991694 259.798578 1268.388461 265.413579 1277.411572 297.008434 C 1283.808762 319.189085 1285.512817 324.608538 1290.708788 331.899659 C 1295.904759 339.190779 1300.905182 346.090805 1311.101577 349.89001 C 1323.70041 354.61108 1329.203669 347.79486 1348.506981 351.091229 C 1356.077455 352.46006 1363.256834 354.890434 1370.100989 358.410285 C 1381.191314 363.801803 1383.7893 368.411132 1398.986118 381.205512 C 1410.411667 390.899071 1408.093035 387.602703 1433.905278 407.688203 C 1453.20859 422.689474 1452.901301 423.304051 1458.013466 425.70649 C 1472.707448 432.802063 1478.098967 429.310147 1494.105909 436.601268 C 1501.313224 439.897636 1510.895042 444.311418 1518.186162 453.3904 C 1528.689845 466.799357 1528.298751 482.8063 1527.795915 499.204337 C 1527.181338 517.613718 1523.15865 535.24091 1515.699918 552.113848 L 1490.502252 602.704727 C 1521.510466 604.688135 1547.909351 604.604329 1568.693235 603.905946 C 1589.505054 603.207563 1606.908763 601.391766 1624.08899 591.809949 C 1631.100757 587.815197 1637.497947 583.010321 1643.308495 577.39532 C 1664.706956 556.695242 1671.606982 531.190288 1674.596063 520.798346 C 1684.289621 488.086077 1702.307908 458.502565 1738.400351 399.307605 C 1743.987417 390.200688 1738.70764 399.195864 1785.303767 329.497221 C 1798.712724 309.076496 1813.183224 289.410025 1828.687331 270.497808 C 1847.599548 247.507034 1858.187037 237.701733 1873.188308 230.801707 C 1883.189155 226.192378 1898.190426 219.4879 1915.286847 224.795612 C 1918.49941 225.689543 1934.506353 230.997255 1942.998692 247.59084 C 1950.094265 261.502633 1947.49628 274.688107 1946.602349 278.906342 C 1945.708419 283.096641 1942.998692 291.197886 1930.986501 306.590252 C 1917.605479 323.602867 1909.58804 329.301673 1898.497715 341.509412 C 1898.497715 341.509412 1884.89321 356.398941 1870.813805 380.004293 C 1854.304026 407.688203 1854.806862 424.309723 1844.303179 460.709455 C 1838.297084 481.493339 1838.688178 473.89493 1801.003421 564.209845 C 1778.403741 618.208834 1778.599288 619.996695 1768.486699 641.199608 C 1754.686647 670.112673 1743.093486 694.304667 1722.812438 722.994248 C 1704.20751 749.309327 1687.194895 766.489554 1663.813026 790.402194 C 1640.403221 814.2869 1637.497947 814.594188 1601.209956 849.401607 C 1540.897584 907.1998 1534.109299 920.41321 1530.198353 929.995027 C 1526.287407 939.60478 1527.712109 939.688586 1515.699918 997.402973 C 1515.699918 997.402973 1511.20233 1019.499818 1501.313224 1063.6097 C 1486.703048 1129.090109 1471.506229 1155.097899 1450.806151 1226.109502 C 1439.604085 1264.213289 1423.597142 1319.804592 1415.886992 1393.386245 C 1412.506817 1425.204584 1412.395076 1454.70429 1412.199528 1513.703702 C 1412.199528 1513.703702 1412.003981 1604.800806 1435.106497 1655.810715 C 1443.012195 1673.102683 1451.11344 1680.505545 1453.20859 1682.2096 C 1467.008642 1694.305597 1476.003817 1690.897487 1491.703471 1703.887414 C 1496.005512 1707.491071 1507.012031 1716.905277 1512.096261 1732.800478 C 1514.107604 1738.806574 1518.186162 1751.712695 1512.096261 1761.713543 C 1507.79422 1768.809116 1500.391358 1771.099813 1485.697376 1774.899017 C 1455.191998 1782.692974 1434.296373 1786.296631 1403.790995 1789.397452 C 1389.990943 1790.710413 1382.196986 1791.297055 1373.704647 1786.911208 C 1367.195715 1783.586904 1364.402182 1779.508346 1353.311857 1765.289265 C 1337.696009 1745.28757 1343.813846 1754.198939 1329.203669 1735.202917 C 1316.493095 1718.693138 1310.095905 1710.312539 1302.693043 1699.110473 C 1296.91043 1690.199103 1292.412843 1682.600694 1289.507569 1677.404723 C 1292.468713 1696.149328 1291.267494 1714.61458 1285.903911 1732.800478 C 1283.305926 1741.488365 1279.81401 1753.109462 1271.405476 1762.886826 C 1255.398533 1781.687302 1229.502484 1784.313223 1205.198749 1785.709989 C 1160.641901 1788.363845 1116.112989 1787.944815 1071.612012 1784.50877 L 829.692073 1788.112427 C 786.085026 1795.459419 742.366238 1796.297478 698.507773 1790.598672 C 606.712286 1778.502675 543.103545 1740.706176 508.407867 1719.503262 C 471.812588 1697.294677 419.210366 1664.498602 373.591975 1602.789463 C 356.886649 1580.189782 339.594681 1544.404628 305.010746 1472.806382 C 292.998555 1448.111553 283.109449 1426.294061 277.2989 1395.788684 C 271.991188 1367.993032 273.108601 1348.494174 273.695243 1322.402577 C 274.700915 1278.292695 271.711835 1234.099006 271.292805 1189.989123 C 270.398874 1089.896844 270.00778 1039.892607 270.091586 1032.294198 C 270.90171 950.304011 273.387954 941.308835 267.689148 910.803457 C 255.788698 846.999169 230.311679 808.699834 224.389389 800.011947 C 205.393367 772.495649 184.80503 754.309751 173.798511 744.699998 C 159.998459 732.604001 145.108929 719.893427 122.090219 708.607555 C 104.043997 700.003474 85.187651 693.969443 65.493245 690.505462 C 43.955107 686.650387 22.277293 685.840262 0.487737 688.103024 Z M 0.487737 688.103024 " stroke="#000000" stroke-width="1" stroke-opacity="1" stroke-miterlimit="10"/></g><g clip-path="url(#19a9ff7215)"><path fill="#000000" d="M 300.085938 68 C 300.601562 67.273438 301.652344 67.1875 301.929688 67.160156 C 302.210938 67.132812 302.742188 67.175781 304.574219 67.945312 C 305.929688 68.515625 306.601562 68.796875 307.273438 69.1875 C 308.058594 69.652344 308.804688 70.175781 309.511719 70.753906 C 310.28125 71.355469 311.117188 71.871094 311.875 72.488281 C 312.027344 72.628906 312.503906 73.019531 313.105469 72.992188 C 313.1875 72.992188 313.578125 72.976562 313.664062 72.769531 C 313.746094 72.558594 313.441406 72.207031 313.105469 71.871094 C 312.140625 70.921875 311.707031 70.683594 311.1875 70.195312 C 310.921875 69.929688 310.574219 69.382812 309.847656 68.277344 C 309.648438 67.984375 309.847656 68.265625 308.671875 66.265625 C 308.390625 65.789062 308.222656 65.496094 308.167969 65.035156 C 308.105469 64.597656 308.183594 64.179688 308.390625 63.789062 C 308.515625 63.554688 308.742188 63.160156 309.175781 63.0625 C 309.609375 62.964844 310.015625 63.257812 310.125 63.34375 C 310.378906 63.527344 310.546875 63.769531 310.628906 64.070312 C 310.753906 64.558594 310.445312 64.785156 310.40625 65.371094 C 310.363281 65.957031 310.503906 66.113281 310.742188 66.65625 C 311.042969 67.335938 311.4375 67.949219 311.929688 68.503906 C 313.605469 70.445312 315.648438 72.097656 317.089844 74.234375 C 317.132812 74.335938 317.195312 74.417969 317.28125 74.484375 C 317.363281 74.550781 317.457031 74.597656 317.5625 74.617188 C 317.667969 74.640625 317.773438 74.636719 317.875 74.609375 C 317.980469 74.582031 318.070312 74.53125 318.152344 74.460938 C 318.515625 74.167969 318.417969 73.621094 318.429688 72.320312 C 318.445312 71.019531 318.515625 70.683594 318.765625 70.140625 C 319.019531 69.59375 319.296875 69.46875 319.382812 69.46875 C 319.703125 69.441406 319.96875 69.859375 319.996094 69.914062 C 320.277344 70.363281 320.179688 70.808594 320.109375 71.539062 C 320.058594 72.152344 320.039062 72.765625 320.054688 73.382812 L 321.800781 71.707031 C 325.117188 68.460938 326.09375 67.300781 327.296875 66.210938 C 328.5 65.117188 330.808594 63.328125 334.078125 61.945312 L 337.394531 61.945312 L 337.394531 67.160156 C 337.039062 68.121094 336.628906 69.058594 336.164062 69.972656 C 335.546875 71.144531 335.167969 71.859375 334.46875 72.710938 C 333.769531 73.566406 333.03125 74.234375 331.953125 75.691406 C 331.742188 75.96875 331.421875 76.417969 331.449219 76.976562 C 331.476562 77.535156 331.757812 77.828125 332.121094 78.320312 C 332.613281 78.984375 333.0625 79.679688 333.464844 80.402344 C 333.996094 81.425781 334.203125 82.511719 334.078125 83.660156 C 333.988281 84.671875 333.613281 85.566406 332.960938 86.34375 C 332.347656 87.078125 331.582031 87.582031 330.667969 87.855469 L 326.121094 87.632812 C 324.976562 87.269531 324.261719 86.847656 323.816406 86.511719 C 323.648438 86.386719 323.324219 86.136719 322.921875 86.179688 C 322.515625 86.21875 322.191406 86.609375 322.136719 86.679688 C 321.886719 87.015625 321.886719 87.367188 321.859375 87.632812 C 321.746094 88.429688 321.269531 89.28125 320.726562 89.660156 C 319.957031 90.191406 318.878906 89.839844 317.929688 89.546875 C 317.128906 89.28125 316.398438 88.890625 315.734375 88.375 C 314.78125 87.644531 314.867188 87.394531 313.550781 86.179688 C 312.238281 84.960938 312.152344 85.128906 311.875 84.554688 C 311.59375 83.980469 311.578125 83.253906 311.648438 82.082031 C 311.746094 80.332031 312.109375 80.039062 311.875 79.394531 C 311.636719 78.753906 310.644531 78.320312 309.175781 77.703125 C 307.34375 76.898438 305.605469 75.929688 303.960938 74.796875 C 301.414062 73.035156 300.699219 71.691406 300.476562 71.257812 C 300.253906 70.824219 299.371094 69.019531 300.085938 68 Z M 300.085938 68 " fill-opacity="1" fill-rule="nonzero"/></g><g clip-path="url(#41c3bfa999)"><path stroke-linecap="butt" transform="matrix(0.139832, 0, 0, 0.139832, 37.537268, 61.874996)" fill="none" stroke-linejoin="miter" d="M 1877.60209 43.802623 C 1881.289553 38.606652 1888.804156 37.992075 1890.787565 37.796528 C 1892.798908 37.60098 1896.598113 37.908269 1909.699781 43.411528 C 1919.39334 47.490086 1924.198217 49.50143 1929.003093 52.294963 C 1934.618094 55.619267 1939.953741 59.362601 1945.010036 63.497029 C 1950.513295 67.79907 1956.491456 71.486533 1961.910909 75.900315 C 1963.000387 76.905987 1966.408497 79.699519 1970.710537 79.503972 C 1971.297179 79.503972 1974.090712 79.392231 1974.705289 77.911658 C 1975.291931 76.403151 1973.112976 73.888971 1970.710537 71.486533 C 1963.810511 64.698248 1960.70969 62.994193 1956.994291 59.502277 C 1955.094689 57.602675 1952.608445 53.691729 1947.412474 45.786031 C 1945.987772 43.690882 1947.412474 45.702225 1939.00394 31.399338 C 1936.992597 27.991228 1935.791378 25.896078 1935.400283 22.599709 C 1934.953318 19.470953 1935.512024 16.481872 1936.992597 13.68834 C 1937.886527 12.01222 1939.506776 9.190752 1942.607598 8.492369 C 1945.708419 7.793986 1948.613693 9.889135 1949.395882 10.503712 C 1951.211679 11.816673 1952.412898 13.548663 1952.99954 15.699683 C 1953.89347 19.191599 1951.686579 20.811848 1951.407226 25.002147 C 1951.099937 29.192447 1952.105609 30.30986 1953.809664 34.19287 C 1955.960684 39.053617 1958.782152 43.439464 1962.302004 47.40628 C 1974.286259 61.290138 1988.896436 73.106782 1999.204572 88.387406 C 1999.51186 89.113725 1999.958826 89.700367 2000.573403 90.175267 C 2001.160045 90.650168 2001.830493 90.985392 2002.584746 91.125068 C 2003.339 91.29268 2004.093254 91.264745 2004.819573 91.069198 C 2005.573827 90.87365 2006.216339 90.510491 2006.802981 90.007655 C 2009.400966 87.912506 2008.702583 84.00156 2008.786389 74.699096 C 2008.898131 65.396631 2009.400966 62.994193 2011.188827 59.111183 C 2013.004624 55.200237 2014.988032 54.306306 2015.602609 54.306306 C 2017.893306 54.110759 2019.792908 57.099839 2019.988456 57.490934 C 2021.999799 60.703496 2021.301416 63.888124 2020.79858 69.11203 C 2020.435421 73.497877 2020.295744 77.883723 2020.407486 82.297505 L 2032.894577 70.313249 C 2056.61167 47.098992 2063.595502 38.802199 2072.199583 31.008243 C 2080.803664 23.186351 2097.313443 10.391971 2120.695312 0.502865 L 2144.412406 0.502865 L 2144.412406 37.796528 C 2141.870291 44.668618 2138.937082 51.373097 2135.612778 57.909964 C 2131.198996 66.290562 2128.489269 71.402727 2123.488845 77.492628 C 2118.488422 83.610465 2113.208645 88.387406 2105.498494 98.807284 C 2103.989986 100.790692 2101.69929 104.003255 2101.894837 107.998006 C 2102.090384 111.992758 2104.101728 114.087908 2106.699713 117.607759 C 2110.219565 122.356765 2113.432127 127.329253 2116.309466 132.497289 C 2120.108671 139.816345 2121.589243 147.582366 2120.695312 155.795352 C 2120.0528 163.030602 2117.371008 169.427792 2112.705809 174.986923 C 2108.319962 180.238764 2102.844638 183.842421 2096.307771 185.797894 L 2063.79105 184.205581 C 2055.605999 181.607595 2050.493834 178.59058 2047.309206 176.188142 C 2046.107987 175.294211 2043.789355 173.50635 2040.912016 173.813639 C 2038.006742 174.092992 2035.68811 176.886525 2035.297015 177.389361 C 2033.509154 179.791799 2033.509154 182.305978 2033.313607 184.205581 C 2032.503483 189.904388 2029.095373 195.994289 2025.212362 198.704016 C 2019.709102 202.50322 2011.998952 199.989041 2005.210667 197.893891 C 1999.483925 195.994289 1994.260019 193.200756 1989.511013 189.513293 C 1982.694793 184.289387 1983.30937 182.501526 1973.895165 173.813639 C 1964.508895 165.097816 1963.894317 166.299036 1961.910909 162.192542 C 1959.899566 158.086049 1959.787824 152.890078 1960.29066 144.50948 C 1960.989043 131.994453 1963.587029 129.899303 1961.910909 125.289974 C 1960.206854 120.708581 1953.111281 117.607759 1942.607598 113.193977 C 1929.505929 107.4393 1917.074708 100.511339 1905.313935 92.410093 C 1887.100101 79.811261 1881.987936 70.201508 1880.395623 67.100686 C 1878.803309 63.999865 1872.489925 51.093744 1877.60209 43.802623 Z M 1877.60209 43.802623 " stroke="#000000" stroke-width="1" stroke-opacity="1" stroke-miterlimit="10"/></g></svg>